<svg width="144" height="144" viewBox="0 0 144 144" fill="none" xmlns="http://www.w3.org/2000/svg">
<path d="M72 24C111.765 24 144 45.4903 144 72C144 98.5097 111.765 120 72 120C32.2355 120 0 98.5097 0 72C1.54622e-06 45.4903 32.2355 24 72 24ZM72 61.5C68.8133 61.5 66.6951 61.9248 65.4287 62.3096C65.1101 62.4064 64.8443 62.5007 64.6279 62.5859L57.3799 114.765C62.0804 115.439 66.9709 115.8 72 115.8C77.0287 115.8 81.9189 115.44 86.6191 114.766L79.3721 62.5859C79.1556 62.5006 78.8892 62.4064 78.5703 62.3096C77.3039 61.9249 75.1864 61.5 72 61.5ZM72 28.2002C52.8313 28.2002 35.6672 33.3876 23.418 41.5537C11.1395 49.7394 4.2002 60.5864 4.2002 72C4.2002 83.4136 11.1395 94.2606 23.418 102.446C31.497 107.832 41.7143 111.921 53.2344 114.082L59.1064 71.8047C54.0309 71.0195 49.6035 69.7686 46.376 68.1445C44.7511 67.3269 43.3322 66.3671 42.2949 65.2402C41.2468 64.1016 40.5 62.6876 40.5 61.0498C40.5001 58.7864 41.9053 56.9806 43.627 55.6514C45.3776 54.2999 47.7797 53.1733 50.5596 52.2656C52.6794 51.5735 55.0873 50.9871 57.7119 50.5254C59.2738 44.0833 65.0758 39.3 71.998 39.2998C78.9201 39.2998 84.7219 44.0828 86.2842 50.5244C88.9104 50.9863 91.3196 51.5731 93.4404 52.2656C96.2203 53.1733 98.6224 54.2999 100.373 55.6514C102.095 56.9806 103.5 58.7864 103.5 61.0498C103.5 62.6876 102.753 64.1016 101.705 65.2402C100.668 66.3671 99.2489 67.3269 97.624 68.1445C94.3963 69.7687 89.9685 71.0195 84.8926 71.8047L90.7646 114.082C102.285 111.921 112.503 107.832 120.582 102.446C132.86 94.2606 139.8 83.4136 139.8 72C139.8 60.5864 132.86 49.7394 120.582 41.5537C108.333 33.3876 91.1687 28.2002 72 28.2002ZM72 73.46C73.8784 73.46 75.3247 74.1282 76.2871 74.7881C76.7661 75.1165 77.1334 75.4472 77.3877 75.7051C77.5155 75.8347 77.6174 75.9481 77.6924 76.0361C77.7299 76.0802 77.7605 76.1185 77.7852 76.1494C77.7975 76.1649 77.8083 76.1786 77.8174 76.1904L77.8301 76.207L77.835 76.2139L77.8379 76.2168L77.8389 76.2188C77.8366 76.2216 77.77 76.273 76.1602 77.4805L77.8398 76.2197L78.1748 76.666L81.4434 102.819C81.4595 102.948 81.4622 103.076 81.4551 103.201C81.4581 103.267 81.46 103.333 81.46 103.4C81.4598 105.638 79.7625 107.15 78.1758 107.978C76.4874 108.858 74.3004 109.34 72 109.34C69.6996 109.34 67.5126 108.858 65.8242 107.978C64.2375 107.15 62.5402 105.638 62.54 103.4C62.54 103.333 62.541 103.267 62.5439 103.201C62.5369 103.076 62.5405 102.948 62.5566 102.819L65.8252 76.666L66.1602 76.2197L67.8398 77.4805C66.2351 76.2769 66.1638 76.2219 66.1611 76.2188L66.1621 76.2168L66.165 76.2139L66.1699 76.207L66.1826 76.1904C66.1917 76.1786 66.2025 76.1649 66.2148 76.1494C66.2395 76.1185 66.2701 76.0802 66.3076 76.0361C66.3826 75.9481 66.4845 75.8347 66.6123 75.7051C66.8666 75.4473 67.2331 75.1164 67.7119 74.7881C68.6743 74.1281 70.1213 73.46 72 73.46ZM72 101.66C70.2358 101.66 68.743 102.038 67.7676 102.547C66.9441 102.977 66.779 103.316 66.7471 103.4C66.7793 103.485 66.9452 103.825 67.7676 104.254C68.743 104.763 70.236 105.14 72 105.14C73.7643 105.14 75.258 104.763 76.2334 104.254C77.0555 103.825 77.2207 103.485 77.2529 103.4C77.221 103.316 77.0564 102.976 76.2334 102.547C75.258 102.038 73.7643 101.66 72 101.66ZM72 77.6602C71.1588 77.6602 70.5255 77.9519 70.0879 78.252C69.9934 78.3167 69.909 78.381 69.8359 78.4414L67.3691 98.1738C68.7599 97.7089 70.3506 97.46 72 97.46C73.6491 97.46 75.2393 97.7091 76.6299 98.1738L74.1641 78.4414C74.091 78.381 74.0066 78.3167 73.9121 78.252C73.4745 77.9519 72.8412 77.6602 72 77.6602ZM72 53.5498C64.041 53.5498 56.9213 54.6063 51.8633 56.2578C49.3228 57.0874 47.4182 58.03 46.1934 58.9756C44.9402 59.9431 44.7003 60.6624 44.7002 61.0498C44.7002 61.3364 44.8204 61.7814 45.3857 62.3955C45.9619 63.0213 46.9031 63.708 48.2637 64.3926C50.9469 65.7427 54.8825 66.8958 59.6846 67.6436L60.7451 60.0098L61.4893 59.4844L62.7002 61.2002C61.4892 59.4846 61.4901 59.4832 61.4912 59.4824L61.4932 59.4814L61.498 59.4785L61.5078 59.4717C61.5147 59.4669 61.5221 59.4616 61.5303 59.4561C61.5466 59.445 61.5653 59.432 61.5869 59.418C61.6304 59.3897 61.6855 59.3553 61.751 59.3164C61.8819 59.2387 62.0575 59.1423 62.2803 59.0332C62.7266 58.8146 63.3609 58.5484 64.208 58.291C65.9041 57.7757 68.4367 57.2998 72 57.2998C75.5633 57.2998 78.0959 57.7757 79.792 58.291C80.639 58.5484 81.2734 58.8146 81.7197 59.0332C81.9425 59.1423 82.1181 59.2387 82.249 59.3164C82.3144 59.3552 82.3686 59.3898 82.4121 59.418C82.4339 59.4321 82.4533 59.4449 82.4697 59.4561C82.4779 59.4616 82.4854 59.467 82.4922 59.4717L82.502 59.4785L82.5068 59.4814L82.5088 59.4824C82.5099 59.4832 82.5108 59.4846 81.2998 61.2002L82.5107 59.4844L83.2549 60.0098L84.3145 67.6436C89.117 66.8958 93.0529 65.7428 95.7363 64.3926C97.0969 63.708 98.0381 63.0213 98.6143 62.3955C99.1796 61.7814 99.2998 61.3364 99.2998 61.0498C99.2997 60.6624 99.0598 59.9431 97.8066 58.9756C96.5818 58.03 94.6772 57.0874 92.1367 56.2578C87.0787 54.6063 79.959 53.5498 72 53.5498ZM71.998 43.5C67.7287 43.5002 64.0527 46.0498 62.4121 49.709C65.4312 49.3782 68.6543 49.2002 71.998 49.2002C75.342 49.2002 78.5657 49.3782 81.585 49.709C79.9443 46.0496 76.2676 43.5 71.998 43.5Z" fill="#FC5308"/>
</svg>
